PathFileType	4	(X/Y/Z)	OpenSim_Sub02_EMGBaseline_Accel.trc
DataRate	CameraRate	NumFrames	NumMarkers	Units	OrigDataRate	OrigDataStartFrame	OrigNumFrames
100	100	17	8	m	100	2523	6727
Frame#	Time	torso_imu_offset_imu	pelvis_imu_offset_imu	tibia_r_imu_offset_imu	femur_r_imu_offset_imu	tibia_l_imu_offset_imu	femur_l_imu_offset_imu	toes_r_imu_offset_imu	toes_l_imu_offset_imu
				X1	Y1	Z1	X2	Y2	Z2	X3	Y3	Z3	X4	Y4	Z4	X5	Y5	Z5	X6	Y6	Z6	X7	Y7	Z7	X8		Y8	Z8	

2523	25.22000000	10.89080565	-1.23752213	8.95872975	10.77629107	1.08856536	5.67425613	6.44192044	3.05842713	3.57922629	11.22377779	-0.84445050	0.63203760	17.83780305	-0.15453718	0.99231417	11.62077287	-0.93932093	-1.28221453	8.57873099	7.51606278	11.21566056	1.41415641	2.29012545	16.33847375
2524	25.23000000	10.25111095	-1.50075288	8.95393234	9.87313995	-1.52534145	5.58094062	4.49627515	7.50449099	2.69269615	8.36565235	-0.29636290	-0.18355286	18.86090501	1.70559590	-0.15518065	11.90981169	-2.13895378	-1.15236602	7.15571800	0.04411985	9.64246065	1.67934452	1.67558915	16.29459586
2525	25.24000000	9.64136479	-1.58062798	8.86362202	9.67336465	-2.84288032	5.26352738	4.26988106	9.39738429	0.57777198	7.53742807	1.24065134	-0.01920731	18.38282815	3.34844858	0.50769129	11.23424135	-2.52673133	-0.98191414	6.49551890	1.08630543	10.03755173	1.47206550	1.35674508	16.55375694
2526	25.25000000	9.36306376	-1.35849420	8.79862371	10.02146222	-3.50457379	5.85327861	4.51997047	10.50741809	-1.08961857	7.47266836	2.33410630	1.65303271	16.95516487	2.50985904	1.44154901	10.68152489	-2.41676176	-1.19436394	5.24443651	1.80588492	9.44774019	0.86696510	1.51455291	16.16526051
2527	25.26000000	9.08468417	-1.24130433	8.60303002	10.08000922	-3.77194702	6.21222669	5.25393331	11.58561135	-2.21986432	6.80044449	1.81390321	1.25195035	16.18362172	-0.17791237	1.29941807	10.46124445	-2.42913537	-1.19275374	6.17741130	0.14934750	9.16600137	0.99539085	1.92244604	13.97785326
2528	25.27000000	8.57919243	-1.47551959	8.28054920	9.36972202	-3.41216900	6.15951599	7.44736417	11.61142888	-1.84791926	6.86385357	1.12565897	-0.88387900	15.60770485	-3.12900619	0.96712497	10.47849944	-2.39584651	-0.22600361	6.15874742	0.01163819	9.11964020	6.46511865	6.95809755	15.21321643
2529	25.28000000	7.97142211	-1.74343043	7.74018355	8.47485171	-2.49269760	6.14335235	10.21939553	10.55809037	0.40953326	8.05672411	0.87394680	-2.02889950	13.83975925	-5.04870801	1.50928743	11.10987718	-2.46674623	0.64537491	5.06804016	0.33964860	8.98179034	11.21273558	9.19506001	16.14871089
2530	25.29000000	7.60191700	-1.86771645	7.12094158	8.00160988	-1.42923672	5.96572599	11.18758647	8.85938028	1.65843873	9.40594948	0.18914773	-2.07919752	10.83198066	-5.51587414	2.75771557	12.30452099	-2.64019181	0.69827782	4.75730008	0.04687002	9.09116157	14.81861017	3.95474326	15.37740137
2531	25.30000000	7.85135852	-1.84013127	6.74501962	8.24468328	-0.40308776	5.74076769	10.13533383	7.16747590	1.02673256	10.65293921	-0.86897745	-1.83786694	7.57531236	-6.28075492	4.56346590	13.25462675	-2.56742927	0.47177429	4.44596728	0.14718645	9.56300814	18.12983601	3.10953617	15.48505025
2532	25.31000000	8.67463805	-1.70523936	6.65616507	8.83692189	0.47633675	5.32536975	9.28588871	6.56896063	0.33397639	11.06311366	-1.54330779	-1.63656297	4.80363314	-8.15751004	6.01619370	13.31905263	-2.15888999	0.38688026	4.15861442	0.33560919	9.19244098	14.58389968	6.86842655	15.86534201
2533	25.32000000	9.59546242	-1.62080319	6.76287722	9.41301903	1.08219462	4.79187454	9.65091907	6.44866457	0.00134148	10.43198289	-1.74338875	-1.29167616	3.46908094	-9.53683580	6.49000669	12.84728361	-1.83095414	0.41483943	4.51178402	0.40616028	9.05535154	7.02191388	8.05359088	16.42584182
2534	25.33000000	9.84557113	-1.50396152	6.84801381	9.67858712	1.44935113	4.38934008	10.30251527	5.43507210	-0.02086370	9.76079516	-1.88150434	-1.10605938	3.10793360	-10.06215989	5.78864980	12.29410655	-1.62099370	0.45500640	4.56439398	0.50548831	9.33916772	4.64301341	6.60082354	16.86220145
2535	25.34000000	9.39893291	-1.30065097	6.84333979	9.65294538	1.52683897	4.11514740	10.76994587	2.95400892	0.29572621	9.06885185	-2.10743990	-1.27839096	2.87249890	-9.78421825	4.77100086	11.82643145	-1.06701883	0.30321583	4.46119304	0.52281125	9.05444534	13.00665272	2.43398345	22.24550388
2536	25.35000000	8.80868884	-0.92596148	6.89656054	9.71205248	1.44569148	3.97502408	11.32051551	-0.29659267	0.50534549	8.38585268	-2.06848856	-1.20623428	2.86115729	-9.00143523	5.03046426	11.42729764	-0.08195524	0.16303890	4.25182784	0.32142333	8.96353006	9.29968121	2.54627666	20.32544277
2537	25.36000000	8.62635259	-0.45546923	6.91397304	10.14164233	1.15091374	3.84898528	11.60397571	-3.09068013	0.49664470	8.19602682	-1.47901499	-0.94793466	2.38242494	-8.27214907	6.14060909	11.24221310	1.13766705	0.18440096	4.28875373	0.25102930	9.04750593	-0.48183709	6.36095079	12.30926540
2538	25.37000000	8.91769341	-0.08738996	6.87749430	10.53772495	0.71698567	3.71356991	11.19240691	-5.12026432	0.58492372	8.36673755	-0.48624009	-0.54336031	1.18894569	-6.87720874	6.59494139	11.20158045	2.19491242	0.19437315	4.30810226	0.00502070	8.90607286	-3.09267311	6.89421679	8.29530138
2539	25.38000000	9.23302388	0.08109731	6.88687812	10.47859549	0.14214556	3.55343745	10.17744091	-6.36166599	0.67605093	8.49809249	0.36631398	-0.06928921	-0.03556922	-4.32381958	6.48226172	11.06907973	2.96288141	0.06530671	3.86614723	-0.27153200	8.90607390	-4.14102624	6.66535916	5.79894670
